<svg width="800" height="97" viewBox="0 0 800 97" fill="none" xmlns="http://www.w3.org/2000/svg">
<path d="M68.3804 80.6008L68.3804 80.6008L68.3871 80.596C69.2091 80.0005 69.9796 79.4553 70.72 78.9315C73.3999 77.0355 75.685 75.4188 78.5871 72.7032C79.891 71.4831 81.0315 70.4612 82.0797 69.5222C84.0867 67.724 85.7549 66.2294 87.5826 64.2274C89.752 61.8524 91.5192 59.7978 93.0034 58.0724C93.4165 57.5922 93.8076 57.1375 94.1794 56.7085L94.1876 56.699L94.1954 56.6891L95.6725 54.8007V82.6485C95.5475 82.7653 95.4075 82.8875 95.2463 83.0283C95.2155 83.0552 95.184 83.0827 95.1517 83.111C94.89 83.3399 94.5891 83.607 94.2543 83.9407C93.4933 84.5715 91.9485 85.6026 89.4665 87.04C86.9757 88.4813 84.49 89.7898 81.8741 90.9671C79.146 92.1366 75.7547 93.1813 71.6924 94.0988C67.5057 95.0135 63.3264 95.5357 59.1526 95.5357C43.0495 95.5357 29.1988 90.9564 17.7034 81.6817L17.7007 81.6796C6.20836 72.5377 0.5 61.6065 0.5 48.7393C0.5 38.479 4.65141 28.579 13.0221 19.032L13.0221 19.032C21.374 9.50521 32.0724 3.63145 45.2708 1.40981L45.2708 1.40984L45.2769 1.40875C58.9083 -1.05817 74.9101 1.50313 93.0456 9.02645L93.7935 40.8357C92.3335 38.9392 90.7006 36.354 88.9686 33.2155L88.9687 33.2155L88.9622 33.2044C87.9489 31.4747 86.9556 29.6834 85.9868 27.9362C85.889 27.7598 85.7915 27.584 85.6942 27.4086C84.6348 25.4991 83.6048 23.6546 82.6181 22.0322C82.517 21.866 82.4201 21.7066 82.327 21.5532C80.558 18.6412 80.1198 17.9197 77.5057 15.0287C74.6871 11.9114 71.0167 9.38202 67.5703 7.39419C64.0793 5.38057 60.1804 4.16971 56.0075 4.03419C44.8141 3.63489 36.8439 7.24099 32.1143 14.9437C27.434 22.5661 25.1898 31.9674 25.1898 48.7393C25.1898 59.1746 25.9821 65.764 27.7064 72.532C29.2988 79.2972 31.4402 83.2046 34.3074 85.8019C37.1378 88.4953 40.2638 90.1342 43.9463 90.5431C47.6298 90.9535 51.5694 89.9221 55.2857 88.1254C59.1727 86.2461 64.3978 83.3872 68.3804 80.6008Z" fill="#141414" stroke="black"/>
<mask id="path-2-inside-1_32_63" fill="white">
<path d="M192.865 17.385C184.697 7.37229 173.894 1.83914 160.456 0.784215C146.886 -0.136922 134.766 3.68262 124.095 12.2468C113.423 20.8096 107.1 31.7448 105.386 44.7871C103.543 57.8296 106.704 69.4234 115.004 79.3049C123.305 89.3163 134.107 94.8495 147.545 95.7719C160.852 96.8269 172.972 93.1371 183.644 84.5743C194.315 76.0102 200.638 65.2076 202.483 52.0327C204.195 38.9903 201.034 27.3965 192.865 17.385V17.385ZM190.748 40.8569C188.705 44.8208 185.859 48.8574 182.046 53.1967C178.734 56.9664 174.408 60.9625 168.432 65.7721C161.324 71.4837 154.513 75.8847 148.188 78.8519C142.702 81.427 137.43 82.7329 132.52 82.7329C131.922 82.7329 131.322 82.7136 130.733 82.6749C125.462 82.3298 121.124 80.1449 117.84 76.182C114.348 72.0138 113.204 67.506 114.339 62.3945C115.431 57.0566 118.288 51.6174 122.834 46.2114C127.788 40.4538 133.925 35.1352 141.069 30.413C145.341 27.4578 149.534 24.7189 153.903 22.0306C157.37 20.0308 161.083 18.134 164.912 16.4046C168.586 14.7444 171.909 13.7127 174.788 13.3363C175.206 13.3031 175.731 13.282 176.222 13.282C178.27 13.282 180.308 13.6446 182.451 14.3891C184.954 15.3702 187.182 17.0691 189.229 19.5706C191.768 22.6859 193.112 25.9513 193.337 29.5497C193.572 33.3194 192.725 37.0182 190.748 40.8569Z"/>
</mask>
<path d="M192.865 17.385C184.697 7.37229 173.894 1.83914 160.456 0.784215C146.886 -0.136922 134.766 3.68262 124.095 12.2468C113.423 20.8096 107.1 31.7448 105.386 44.7871C103.543 57.8296 106.704 69.4234 115.004 79.3049C123.305 89.3163 134.107 94.8495 147.545 95.7719C160.852 96.8269 172.972 93.1371 183.644 84.5743C194.315 76.0102 200.638 65.2076 202.483 52.0327C204.195 38.9903 201.034 27.3965 192.865 17.385V17.385ZM190.748 40.8569C188.705 44.8208 185.859 48.8574 182.046 53.1967C178.734 56.9664 174.408 60.9625 168.432 65.7721C161.324 71.4837 154.513 75.8847 148.188 78.8519C142.702 81.427 137.43 82.7329 132.52 82.7329C131.922 82.7329 131.322 82.7136 130.733 82.6749C125.462 82.3298 121.124 80.1449 117.84 76.182C114.348 72.0138 113.204 67.506 114.339 62.3945C115.431 57.0566 118.288 51.6174 122.834 46.2114C127.788 40.4538 133.925 35.1352 141.069 30.413C145.341 27.4578 149.534 24.7189 153.903 22.0306C157.37 20.0308 161.083 18.134 164.912 16.4046C168.586 14.7444 171.909 13.7127 174.788 13.3363C175.206 13.3031 175.731 13.282 176.222 13.282C178.27 13.282 180.308 13.6446 182.451 14.3891C184.954 15.3702 187.182 17.0691 189.229 19.5706C191.768 22.6859 193.112 25.9513 193.337 29.5497C193.572 33.3194 192.725 37.0182 190.748 40.8569Z" fill="#141414"/>
<path d="M160.456 0.784215L160.534 -0.212774L160.524 -0.213489L160.456 0.784215ZM124.095 12.2468L124.72 13.0267L124.72 13.0267L124.095 12.2468ZM105.386 44.7871L106.377 44.9271L106.378 44.9174L105.386 44.7871ZM115.004 79.3049L115.774 78.6666L115.77 78.6617L115.004 79.3049ZM147.545 95.7719L147.624 94.775L147.613 94.7743L147.545 95.7719ZM183.644 84.5743L184.269 85.3543L184.269 85.3542L183.644 84.5743ZM202.483 52.0327L203.473 52.1714L203.474 52.1629L202.483 52.0327ZM190.748 40.8569L191.637 41.3151L191.637 41.3148L190.748 40.8569ZM182.046 53.1967L181.295 52.5367L181.295 52.5367L182.046 53.1967ZM168.432 65.7721L169.058 66.5516L169.059 66.5512L168.432 65.7721ZM148.188 78.8519L147.764 77.9466L147.763 77.9466L148.188 78.8519ZM130.733 82.6749L130.799 81.6771L130.799 81.6771L130.733 82.6749ZM117.84 76.182L118.61 75.544L118.607 75.5397L117.84 76.182ZM114.339 62.3945L115.316 62.6114L115.317 62.6032L115.319 62.5949L114.339 62.3945ZM122.834 46.2114L122.076 45.5591L122.069 45.5678L122.834 46.2114ZM141.069 30.413L141.62 31.2472L141.629 31.2414L141.637 31.2354L141.069 30.413ZM153.903 22.0306L153.403 21.1644L153.391 21.1715L153.379 21.179L153.903 22.0306ZM164.912 16.4046L165.324 17.316L165.324 17.3159L164.912 16.4046ZM174.788 13.3363L174.709 12.3394L174.683 12.3414L174.658 12.3447L174.788 13.3363ZM182.451 14.3891L182.816 13.4581L182.798 13.4509L182.779 13.4445L182.451 14.3891ZM189.229 19.5706L190.004 18.9388L190.002 18.9373L189.229 19.5706ZM193.337 29.5497L194.335 29.4876L194.335 29.4875L193.337 29.5497ZM193.64 16.7529C185.291 6.51848 174.232 0.862547 160.534 -0.212718L160.378 1.78115C173.557 2.81574 184.103 8.2261 192.09 18.0171L193.64 16.7529ZM160.524 -0.213489C146.702 -1.15173 134.334 2.74666 123.469 11.4669L124.72 13.0267C135.197 4.61859 147.07 0.877883 160.388 1.78192L160.524 -0.213489ZM123.469 11.4668C112.607 20.1821 106.144 31.3452 104.395 44.6569L106.378 44.9174C108.056 32.1444 114.239 21.4372 124.72 13.0267L123.469 11.4668ZM104.396 44.6472C102.515 57.9579 105.747 69.8395 114.238 79.948L115.77 78.6617C107.66 69.0073 104.571 57.7013 106.377 44.9271L104.396 44.6472ZM114.234 79.9431C122.713 90.1696 133.771 95.8288 147.476 96.7696L147.613 94.7743C134.443 93.8702 123.896 88.463 115.774 78.6666L114.234 79.9431ZM147.466 96.7688C161.028 97.844 173.4 94.0757 184.269 85.3543L183.018 83.7944C172.544 92.1985 160.676 95.8098 147.624 94.7751L147.466 96.7688ZM184.269 85.3542C195.129 76.6389 201.591 65.6115 203.473 52.1714L201.492 51.894C199.685 64.8037 193.5 75.3815 183.018 83.7944L184.269 85.3542ZM203.474 52.1629C205.221 38.8579 201.99 26.9858 193.64 16.7528L192.09 18.0173C200.078 27.8071 203.169 39.1226 201.491 51.9025L203.474 52.1629ZM189.859 40.3988C187.863 44.2724 185.069 48.2418 181.295 52.5367L182.798 53.8568C186.65 49.4729 189.547 45.3692 191.637 41.3151L189.859 40.3988ZM181.295 52.5367C178.035 56.2469 173.757 60.2027 167.805 64.9931L169.059 66.5512C175.058 61.7222 179.433 57.6859 182.798 53.8568L181.295 52.5367ZM167.805 64.9926C160.742 70.6686 153.998 75.0216 147.764 77.9466L148.613 79.7572C155.027 76.7478 161.906 72.2988 169.058 66.5516L167.805 64.9926ZM147.763 77.9466C142.38 80.4736 137.253 81.7329 132.52 81.7329V83.7329C137.608 83.7329 143.025 82.3803 148.613 79.7571L147.763 77.9466ZM132.52 81.7329C131.944 81.7329 131.365 81.7143 130.799 81.6771L130.668 83.6728C131.279 83.7129 131.901 83.7329 132.52 83.7329V81.7329ZM130.799 81.6771C125.794 81.3494 121.713 79.289 118.61 75.544L117.07 76.82C120.535 81.0009 125.131 83.3102 130.668 83.6728L130.799 81.6771ZM118.607 75.5397C115.305 71.5992 114.25 67.4063 115.316 62.6114L113.363 62.1776C112.157 67.6058 113.39 72.4285 117.074 76.8243L118.607 75.5397ZM115.319 62.5949C116.369 57.4618 119.129 52.1704 123.599 46.8551L122.069 45.5678C117.446 51.0644 114.493 56.6514 113.36 62.1942L115.319 62.5949ZM123.592 46.8637C128.479 41.1841 134.544 35.9249 141.62 31.2472L140.517 29.5788C133.306 34.3456 127.097 39.7236 122.076 45.5592L123.592 46.8637ZM141.637 31.2354C145.895 28.2902 150.073 25.5611 154.427 22.8823L153.379 21.179C148.994 23.8767 144.786 26.6254 140.5 29.5906L141.637 31.2354ZM154.402 22.8969C157.84 20.9143 161.523 19.0325 165.324 17.316L164.501 15.4933C160.643 17.2354 156.901 19.1472 153.403 21.1644L154.402 22.8969ZM165.324 17.3159C168.941 15.6817 172.165 14.6876 174.917 14.3278L174.658 12.3447C171.652 12.7377 168.232 13.807 164.501 15.4934L165.324 17.3159ZM174.867 14.3331C175.258 14.3022 175.756 14.282 176.222 14.282V12.282C175.706 12.282 175.155 12.3041 174.709 12.3394L174.867 14.3331ZM176.222 14.282C178.147 14.282 180.074 14.6219 182.123 15.3338L182.779 13.4445C180.542 12.6673 178.393 12.282 176.222 12.282V14.282ZM182.086 15.3201C184.401 16.2275 186.495 17.8093 188.455 20.2039L190.002 18.9373C187.868 16.3289 185.507 14.5129 182.816 13.4581L182.086 15.3201ZM188.453 20.2024C190.877 23.1753 192.129 26.2457 192.339 29.612L194.335 29.4875C194.096 25.6568 192.659 22.1965 190.004 18.9388L188.453 20.2024ZM192.339 29.6119C192.561 33.1771 191.765 36.6974 189.859 40.3991L191.637 41.3148C193.684 37.3391 194.582 33.4618 194.335 29.4876L192.339 29.6119Z" fill="black" mask="url(#path-2-inside-1_32_63)"/>
<path d="M376.251 48.1076H376.751H405.827C413.357 48.1076 419.552 45.7746 424.323 41.2614C429.107 36.7352 431.412 31.5933 431.412 25.6837C431.412 18.991 428.719 13.4722 423.176 9.21706C417.624 4.95714 409.97 2.73364 400.162 2.73364H342.958V93.9541H364.486V6.37827V5.88233L364.982 5.87828L381.054 5.74706L381.059 5.74702C384.065 5.74704 388.775 5.74788 391.88 6.55754L391.88 6.55759C394.938 7.3562 397.435 8.23605 400.258 9.98497C403.056 11.7168 404.802 12.9968 406.574 16.1318C408.343 19.2615 408.829 22.0745 408.829 26.0787C408.829 28.0906 408.629 29.5677 408.198 30.9376C407.77 32.3005 407.122 33.5332 406.265 35.0501L406.265 35.0503C404.5 38.1723 402.4 39.9577 399.703 41.4421C397.011 43.0563 394.638 43.7776 392.122 44.4396C389.564 45.1128 386.486 45.3579 384.219 45.3579H374.325L374.312 47.6881L374.312 47.6998L374.312 47.6998C374.183 52.0864 375.215 56.2188 377.287 60.2346L377.293 60.246L377.293 60.2461C379.247 64.2864 381.586 67.5276 384.037 69.8499C386.531 72.2129 389.684 74.9719 393.373 78.1336L393.38 78.1395L393.379 78.1396C396.936 81.3016 399.594 83.825 401.2 85.697L408.295 93.9541H434.57C433.228 88.6145 430.682 83.7538 426.924 79.3694C422.916 74.8446 417.743 71.8664 411.253 70.4389L376.251 48.1076ZM376.251 48.1076V48.6076C376.251 49.9921 376.567 51.7 377.148 53.3446C377.727 54.9826 378.583 56.5985 379.694 57.7838C380.695 58.9838 381.465 59.7263 382.381 60.374C383.216 60.964 384.165 61.4693 385.488 62.1733C385.599 62.2324 385.713 62.2929 385.829 62.355C389.126 64.112 392.201 65.4084 395.263 66.3413C398.31 67.4003 401.223 68.195 403.998 68.8557L403.998 68.8558L404.007 68.8578L411.252 70.4387L376.251 48.1076Z" fill="#141414" stroke="black"/>
<path d="M526.326 93.9541H522.653L564.294 14.8503L564.418 14.6148L564.292 14.3805C564.042 13.9154 563.809 13.4763 563.59 13.0618C563.011 11.9685 562.523 11.0461 562.037 10.268L562.029 10.2547L562.02 10.2419C561.343 9.29491 560.019 7.97057 558.365 6.31494L558.277 6.22726L558.277 6.227C556.955 4.90634 555.41 3.74266 553.642 2.73364H582.517L629.04 93.9541H603.95L589.449 64.4802L589.311 64.201H589H542.165H541.862L541.722 64.4695L526.326 93.9541ZM566.402 17.7537L565.962 16.8735L565.51 17.7482L543.756 59.9309L543.38 60.6601H544.2H587.06H587.869L587.507 59.9364L566.402 17.7537Z" fill="#141414" stroke="black"/>
<path d="M706.474 2.73364L710.178 34.5814C705.411 28.8144 699.187 22.2591 691.724 14.9195L691.721 14.9167C683.637 7.09722 678.512 5.87827 676.354 5.87827H673.192H672.692V6.37827V93.9541H652.746V6.37827V5.87827H652.246H649.347C647.19 5.87827 642.066 7.09724 633.981 14.9166C626.52 22.1329 620.297 28.679 615.528 34.5511L619.228 2.73364H706.474Z" fill="#141414" stroke="black"/>
<path d="M464.762 91.1007V91.6711L465.327 91.5964L486.801 88.7579L486.736 88.2622L486.956 88.7109L524.84 70.0852L510.692 93.9541H443.102V2.73364H522.728V25.9553C519.607 24.4878 516.145 22.5418 512.349 20.0304L512.073 20.4474L512.349 20.0304C511.101 19.205 509.822 18.3247 508.502 17.3739C504.58 14.5455 502.119 13.2122 499.517 11.8025C498.347 11.1682 497.148 10.5184 495.774 9.71003L495.766 9.70563L495.759 9.7015C491.044 7.14304 484.272 6.27321 480.411 6.27321H465.262H464.762V6.77321V59.6139V60.6141L465.562 60.0139C466.087 59.6197 466.607 59.2431 467.123 58.8682C470.219 56.6235 473.229 54.4401 477.005 48.8888L477.091 48.7615V48.7444C477.398 48.227 477.696 47.7373 477.994 47.2461L478.05 47.1549C481.284 41.8314 483.881 38.2313 485.645 36.1964H512.391L494.463 46.4614L494.463 46.4614L491.474 48.1737L491.474 48.1737L465.013 63.3246L464.762 63.4687V63.7585V91.1007Z" fill="#141414" stroke="black"/>
<path d="M214.652 71.8607C212.191 69.3995 209.249 67.3638 206.486 66.4625C209.249 65.5612 212.191 63.5255 214.652 61.0643C217.113 58.6031 219.149 55.6613 220.05 52.8986C220.951 55.6613 222.987 58.6031 225.448 61.0643C227.909 63.5255 230.851 65.5612 233.614 66.4625C230.851 67.3638 227.909 69.3995 225.448 71.8607C222.987 74.322 220.951 77.2637 220.05 80.0264C219.149 77.2637 217.113 74.322 214.652 71.8607Z" fill="#141414" stroke="black"/>
<path d="M214.652 34.972C212.191 32.5107 209.249 30.4751 206.486 29.5738C209.249 28.6724 212.191 26.6368 214.652 24.1755C217.113 21.7143 219.149 18.7725 220.05 16.0098C220.951 18.7725 222.987 21.7143 225.448 24.1755C227.91 26.6368 230.851 28.6724 233.614 29.5738C230.851 30.4751 227.91 32.5107 225.448 34.972C222.987 37.4332 220.951 40.3749 220.05 43.1376C219.149 40.3749 217.113 37.4332 214.652 34.972Z" fill="#141414" stroke="black"/>
<path d="M305.673 80.6008L305.673 80.6008L305.68 80.596C306.502 80.0005 307.273 79.4553 308.013 78.9315C310.693 77.0355 312.978 75.4188 315.88 72.7032C317.184 71.4831 318.325 70.4612 319.373 69.5222C321.38 67.724 323.048 66.2294 324.876 64.2274C327.045 61.8523 328.812 59.7976 330.297 58.0722C330.71 57.5921 331.101 57.1374 331.472 56.7085L331.481 56.699L331.488 56.6891L332.966 54.8007V82.6485C332.84 82.7653 332.7 82.8877 332.539 83.0285C332.508 83.0553 332.477 83.0827 332.445 83.111C332.183 83.3399 331.882 83.607 331.547 83.9407C330.786 84.5715 329.241 85.6027 326.76 87.04C324.269 88.4813 321.783 89.7899 319.167 90.9672C316.439 92.1367 313.048 93.1813 308.985 94.0988C304.799 95.0135 300.619 95.5357 296.446 95.5357C280.342 95.5357 266.492 90.9564 254.996 81.6817L254.994 81.6796C243.501 72.5377 237.793 61.6065 237.793 48.7393C237.793 38.479 241.944 28.579 250.315 19.032L250.315 19.032C258.667 9.50521 269.365 3.63145 282.564 1.40981L282.564 1.40984L282.57 1.40875C296.201 -1.05817 312.203 1.50313 330.339 9.02644L331.087 40.8357C329.626 38.9392 327.994 36.354 326.262 33.2155L326.262 33.2155L326.255 33.2044C325.242 31.4749 324.249 29.6837 323.28 27.9365C323.182 27.7601 323.085 27.5841 322.987 27.4086C321.928 25.4991 320.898 23.6546 319.911 22.0322C319.81 21.866 319.713 21.7066 319.62 21.5532C317.851 18.6412 317.413 17.9197 314.799 15.0287C311.98 11.9114 308.31 9.38202 304.863 7.39419C301.372 5.38057 297.473 4.16971 293.3 4.03419C282.107 3.63489 274.137 7.24099 269.407 14.9437C264.727 22.5661 262.483 31.9674 262.483 48.7393C262.483 59.1747 263.275 65.7641 264.999 72.5321C266.592 79.2972 268.733 83.2046 271.6 85.8018C274.431 88.4953 277.557 90.1342 281.239 90.5431C284.923 90.9535 288.862 89.9221 292.579 88.1254C296.466 86.2461 301.691 83.3872 305.673 80.6008Z" fill="#141414" stroke="black"/>
<path d="M738.635 91.1007V91.6711L739.201 91.5964L760.675 88.7579L760.609 88.2622L760.83 88.7109L798.714 70.0851L784.566 93.9541H716.975V2.73364H796.602V25.9553C793.48 24.4878 790.019 22.5418 786.222 20.0304L785.947 20.4474L786.222 20.0304C784.975 19.205 783.695 18.3247 782.376 17.3739C778.453 14.5455 775.993 13.2122 773.391 11.8025C772.22 11.1682 771.021 10.5184 769.647 9.71003L769.64 9.70563L769.632 9.7015C764.918 7.14304 758.146 6.27321 754.285 6.27321H739.135H738.635V6.77321V59.6139V60.6141L739.435 60.0139C739.961 59.6197 740.48 59.2431 740.997 58.8683C744.092 56.6235 747.102 54.4402 750.878 48.8888L750.965 48.7615V48.7445C751.273 48.2245 751.572 47.7325 751.872 47.2389L751.923 47.1549C755.157 41.8314 757.755 38.2313 759.519 36.1964H786.264L768.337 46.4614L768.337 46.4614L765.347 48.1737L765.347 48.1737L738.887 63.3246L738.635 63.4687V63.7585V91.1007Z" fill="#141414" stroke="black"/>
</svg>
